<svg xmlns="http://www.w3.org/2000/svg" xmlns:xlink="http://www.w3.org/1999/xlink" version="1.1" x="0px" y="0px" viewBox="0 0 100 125" style="enable-background:new 0 0 100 100;" xml:space="preserve"><g><path d="M95,53.5L95,53.5l0,0.2c-6.5,0-12.5,0.6-17.1,1.8c0,0,0,0-0.1,0c-2.8,0.7-4.9,2.9-5.7,5.6c0,0,0,0.1,0,0.1   c-1.2,4.6-1.8,10.6-1.8,17.1l-0.1,0h0l-0.1,0c0-6.5-0.6-12.5-1.8-17.1c0,0,0,0,0-0.1c-0.7-2.8-2.9-4.9-5.7-5.7c0,0,0,0-0.1,0   C58,54.2,52,53.6,45.5,53.6l0-0.1v0l0-0.1c6.5,0,12.5-0.6,17.1-1.8c0,0,0.1,0,0.1,0c2.8-0.7,4.9-2.9,5.6-5.7c0,0,0,0,0-0.1   c1.2-4.6,1.8-10.6,1.8-17.1l0.1,0h0l0.1,0c0,6.5,0.6,12.5,1.8,17.1c0,0,0,0,0,0.1c0.7,2.8,2.9,4.9,5.6,5.7c0,0,0,0,0.1,0   c4.6,1.2,10.6,1.8,17.1,1.8L95,53.5z"/></g><g><path d="M57.5,28.7L57.5,28.7l0,0.1c-4.9,0-9.4,0.5-12.8,1.3c0,0,0,0,0,0c-2.1,0.5-3.7,2.2-4.3,4.2c0,0,0,0,0,0.1   c-0.9,3.4-1.3,8-1.3,12.8l-0.1,0h0l-0.1,0c0-4.9-0.5-9.4-1.3-12.8c0,0,0,0,0-0.1c-0.5-2.1-2.2-3.7-4.2-4.2c0,0,0,0-0.1,0   c-3.4-0.9-8-1.3-12.8-1.3l0-0.1v0l0-0.1c4.9,0,9.4-0.5,12.8-1.3c0,0,0,0,0.1,0c2.1-0.5,3.7-2.2,4.2-4.3c0,0,0,0,0,0   c0.9-3.4,1.3-8,1.3-12.8l0.1,0h0l0.1,0c0,4.9,0.5,9.4,1.3,12.8c0,0,0,0,0,0.1c0.5,2.1,2.2,3.7,4.2,4.2c0,0,0,0,0.1,0   C48.1,28.2,52.6,28.7,57.5,28.7L57.5,28.7z"/></g><g><path d="M39.1,68.6L39.1,68.6L39.1,68.6c-2.4,0.1-4.7,0.3-6.4,0.7c0,0,0,0,0,0c-1,0.3-1.8,1.1-2.1,2.1c0,0,0,0,0,0   c-0.4,1.7-0.7,4-0.7,6.4l0,0h0l0,0c0-2.4-0.2-4.7-0.7-6.4c0,0,0,0,0,0c-0.3-1-1.1-1.8-2.1-2.1c0,0,0,0,0,0c-1.7-0.4-4-0.7-6.4-0.7   l0,0v0l0,0c2.4,0,4.7-0.2,6.4-0.7c0,0,0,0,0,0c1-0.3,1.8-1.1,2.1-2.1c0,0,0,0,0,0c0.4-1.7,0.7-4,0.7-6.4l0,0h0l0,0   c0,2.4,0.2,4.7,0.7,6.4c0,0,0,0,0,0c0.3,1,1.1,1.8,2.1,2.1c0,0,0,0,0,0C34.4,68.3,36.7,68.5,39.1,68.6L39.1,68.6z"/></g><text x="0" y="115" fill="#000000" font-size="5px" font-weight="bold" font-family="'Helvetica Neue', Helvetica, Arial-Unicode, Arial, Sans-serif">Created by Shiva</text><text x="0" y="120" fill="#000000" font-size="5px" font-weight="bold" font-family="'Helvetica Neue', Helvetica, Arial-Unicode, Arial, Sans-serif">from the Noun Project</text></svg>