<?xml version="1.0" encoding="iso-8859-1"?>
<!-- Uploaded to: SVG Repo, www.svgrepo.com, Generator: SVG Repo Mixer Tools -->
<!DOCTYPE svg PUBLIC "-//W3C//DTD SVG 1.1//EN" "http://www.w3.org/Graphics/SVG/1.1/DTD/svg11.dtd">
<svg fill="#000000" version="1.1" id="Capa_1" xmlns="http://www.w3.org/2000/svg" xmlns:xlink="http://www.w3.org/1999/xlink" 
	 width="800px" height="800px" viewBox="0 0 463.771 463.771"
	 xml:space="preserve">
<g>
	<g id="Layer_3_17_">
		<g>
			<g>
				<g>
					<g>
						<path d="M173.073,349.604c-4.825,0-8.961-3.444-9.835-8.188c-10.587-57.508-20.312-92.657-41.352-113.697
							S65.695,196.954,8.189,186.367C3.444,185.493,0,181.357,0,176.532s3.445-8.961,8.189-9.835
							c57.506-10.586,92.657-20.311,113.697-41.352s30.765-56.191,41.352-113.697c0.874-4.745,5.01-8.189,9.835-8.189
							s8.961,3.445,9.835,8.189c10.586,57.506,20.312,92.657,41.352,113.697c21.041,21.04,56.191,30.765,113.697,41.352
							c4.746,0.874,8.189,5.01,8.189,9.835s-3.445,8.961-8.189,9.835c-57.506,10.586-92.656,20.312-113.697,41.352
							c-21.04,21.04-30.765,56.191-41.352,113.697C182.034,346.16,177.897,349.604,173.073,349.604z M58.669,176.532
							c35.099,8.738,59.633,19.319,77.359,37.044s28.307,42.26,37.044,77.359c8.738-35.099,19.319-59.633,37.044-77.359
							s42.261-28.307,77.358-37.044c-35.098-8.738-59.632-19.319-77.358-37.044s-28.307-42.26-37.044-77.359
							c-8.738,35.099-19.319,59.633-37.044,77.359S93.768,167.794,58.669,176.532z"/>
					</g>
				</g>
			</g>
			<g>
				<g>
					<g>
						<path d="M350.064,460.312c-4.826,0-8.961-3.444-9.836-8.188c-6.6-35.85-12.584-57.686-25.291-70.393
							c-12.709-12.708-34.543-18.692-70.393-25.292c-4.744-0.873-8.188-5.01-8.188-9.834c0-4.826,3.444-8.962,8.188-9.836
							c35.85-6.599,57.686-12.584,70.393-25.292s18.691-34.543,25.291-70.392c0.875-4.745,5.012-8.189,9.836-8.189
							s8.961,3.445,9.834,8.189c6.602,35.849,12.586,57.686,25.293,70.392c12.707,12.708,34.543,18.693,70.393,25.292
							c4.744,0.874,8.188,5.01,8.188,9.836c0,4.824-3.443,8.961-8.188,9.834c-35.85,6.6-57.686,12.584-70.393,25.292
							c-12.707,12.707-18.691,34.543-25.293,70.393C359.025,456.868,354.889,460.312,350.064,460.312z M290.773,346.604
							c33.689,10.467,48.824,25.602,59.291,59.292c10.465-33.69,25.602-48.825,59.291-59.292
							c-33.689-10.466-48.824-25.601-59.291-59.292C339.598,321.003,324.463,336.138,290.773,346.604z"/>
					</g>
				</g>
			</g>
		</g>
	</g>
</g>
</svg>